<?xml version="1.0" encoding="UTF-8" standalone="no"?>
<!DOCTYPE svg PUBLIC "-//W3C//DTD SVG 1.1//EN"
 "http://www.w3.org/Graphics/SVG/1.1/DTD/svg11.dtd">
<!-- Generated by graphviz version 2.43.0 (0)
 -->
<!-- Title: G Pages: 1 -->
<svg width="5166pt" height="783pt"
 viewBox="0.00 0.00 5165.98 783.36" xmlns="http://www.w3.org/2000/svg" xmlns:xlink="http://www.w3.org/1999/xlink">
<g id="graph0" class="graph" transform="scale(1 1) rotate(0) translate(4 779.36)">
<title>G</title>
<polygon fill="white" stroke="transparent" points="-4,4 -4,-779.36 5161.98,-779.36 5161.98,4 -4,4"/>
<!-- n1 -->
<g id="node1" class="node">
<title>n1</title>
<g id="a_node1"><a xlink:href="functional_decomposition_GR0_0root" xlink:title="root">
<polygon fill="#fed37f" stroke="black" points="374.54,-695.42 343.98,-707.86 313.43,-695.42 313.45,-675.29 374.51,-675.29 374.54,-695.42"/>
<text text-anchor="middle" x="343.98" y="-686.16" font-family="Times,serif" font-size="14.00">root</text>
</a>
</g>
</g>
<!-- n2 -->
<g id="node2" class="node">
<title>n2</title>
<g id="a_node2"><a xlink:href="contextfunctional_decomposition_GR0_0" xlink:title="context:functional_decomposition_GR0_0">
<polygon fill="#9fb1fc" stroke="#0000ff" points="1209.63,-504.86 961.63,-504.86 961.63,-468.86 1209.63,-468.86 1209.63,-504.86"/>
<text text-anchor="middle" x="1085.63" y="-483.16" font-family="Times,serif" font-size="14.00">context:functional_decomposition_GR0_0</text>
</a>
</g>
</g>
<!-- n10 -->
<g id="node18" class="node">
<title>n10</title>
<g id="a_node18"><a xlink:href="functional_decomposition_GR0_0rolling_mean" xlink:title="rolling_mean">
<ellipse fill="#fffc87" stroke="#808080" cx="621.13" cy="-651.86" rx="57.69" ry="18"/>
<text text-anchor="middle" x="621.13" y="-648.16" font-family="Times,serif" font-size="14.00">rolling_mean</text>
</a>
</g>
</g>
<!-- n2&#45;&gt;n10 -->
<g id="edge23" class="edge">
<title>n2&#45;&gt;n10</title>
<path fill="none" stroke="#8b0000" d="M1050.61,-504.98C997.19,-532.75 889.78,-585.87 793.27,-616.86 757.68,-628.28 716.69,-636.82 683.75,-642.6"/>
<polygon fill="#8b0000" stroke="#8b0000" points="683.06,-639.17 673.8,-644.31 684.25,-646.07 683.06,-639.17"/>
<text text-anchor="middle" x="752.27" y="-638.86" font-family="Times,serif" font-size="10.00" fill="red">used</text>
</g>
<!-- n12 -->
<g id="node22" class="node">
<title>n12</title>
<g id="a_node22"><a xlink:href="functional_decomposition_GR0_0rolling_mean.csv" xlink:title="rolling_mean.csv">
<ellipse fill="#fffc87" stroke="#808080" cx="621.13" cy="-470.86" rx="72.29" ry="18"/>
<text text-anchor="middle" x="621.13" y="-467.16" font-family="Times,serif" font-size="14.00">rolling_mean.csv</text>
</a>
</g>
</g>
<!-- n2&#45;&gt;n12 -->
<g id="edge27" class="edge">
<title>n2&#45;&gt;n12</title>
<path fill="none" stroke="#8b0000" d="M961.6,-482.6C879.72,-479.77 774.48,-476.13 703.03,-473.66"/>
<polygon fill="#8b0000" stroke="#8b0000" points="702.86,-470.15 692.74,-473.3 702.61,-477.14 702.86,-470.15"/>
<text text-anchor="middle" x="752.27" y="-478.86" font-family="Times,serif" font-size="10.00" fill="red">used</text>
</g>
<!-- n14 -->
<g id="node26" class="node">
<title>n14</title>
<g id="a_node26"><a xlink:href="functional_decomposition_GR0_0residual.csv" xlink:title="residual.csv">
<ellipse fill="#fffc87" stroke="#808080" cx="621.13" cy="-378.86" rx="52.79" ry="18"/>
<text text-anchor="middle" x="621.13" y="-375.16" font-family="Times,serif" font-size="14.00">residual.csv</text>
</a>
</g>
</g>
<!-- n2&#45;&gt;n14 -->
<g id="edge31" class="edge">
<title>n2&#45;&gt;n14</title>
<path fill="none" stroke="#8b0000" d="M961.56,-495.94C910.99,-493.82 854.32,-483.3 811.27,-452.86 796.66,-442.53 807.37,-427.86 793.27,-416.86 762.37,-392.74 719.25,-383.27 684.02,-379.81"/>
<polygon fill="#8b0000" stroke="#8b0000" points="684.09,-376.31 673.84,-378.96 683.51,-383.28 684.09,-376.31"/>
<text text-anchor="middle" x="752.27" y="-419.86" font-family="Times,serif" font-size="10.00" fill="red">used</text>
</g>
<!-- b1 -->
<g id="node28" class="node">
<title>b1</title>
<ellipse fill="gray" stroke="gray" cx="621.13" cy="-689.86" rx="1.8" ry="1.8"/>
</g>
<!-- n2&#45;&gt;b1 -->
<g id="edge14" class="edge">
<title>n2&#45;&gt;b1</title>
<path fill="none" stroke="#fed37f" d="M1057.62,-505C1007.47,-538.01 895.69,-608.41 793.27,-650.86 725.7,-678.85 634.4,-688.63 623.26,-689.75"/>
<text text-anchor="middle" x="752.27" y="-676.86" font-family="Times,serif" font-size="10.00">wasAssociatedWith</text>
</g>
<!-- ann1 -->
<g id="node3" class="node">
<title>ann1</title>
<polygon fill="none" stroke="gray" points="3416.48,-716.86 3063.48,-716.86 3063.48,-576.86 3422.48,-576.86 3422.48,-710.86 3416.48,-716.86"/>
<polyline fill="none" stroke="gray" points="3416.48,-716.86 3416.48,-710.86 "/>
<polyline fill="none" stroke="gray" points="3422.48,-710.86 3416.48,-710.86 "/>
<g id="a_node3_0"><a xlink:href="functional_decomposition_GR0_0execution_end_time" xlink:title="&lt;TABLE&gt;">
<text text-anchor="start" x="3073.98" y="-702.86" font-family="Times,serif" font-size="10.00">execution_end_time</text>
</a>
</g>
<text text-anchor="start" x="3196.98" y="-702.86" font-family="Times,serif" font-size="10.00">{&#39;value:&#39;: 1764164012.7452385, &#39;dtype&#39;: &#39;float&#39;}</text>
<g id="a_node3_1"><a xlink:href="functional_decomposition_GR0_0execution_start_time" xlink:title="&lt;TABLE&gt;">
<text text-anchor="start" x="3073.98" y="-689.86" font-family="Times,serif" font-size="10.00">execution_start_time</text>
</a>
</g>
<text text-anchor="start" x="3196.98" y="-689.86" font-family="Times,serif" font-size="10.00">{&#39;value:&#39;: 1764163932.7785966, &#39;dtype&#39;: &#39;float&#39;}</text>
<g id="a_node3_2"><a xlink:href="yProv4MLartifact_uri" xlink:title="&lt;TABLE&gt;">
<text text-anchor="start" x="3073.98" y="-676.86" font-family="Times,serif" font-size="10.00">yProv4ML:artifact_uri</text>
</a>
</g>
<text text-anchor="start" x="3196.98" y="-676.86" font-family="Times,serif" font-size="10.00">/content/functional_decomposition_0/artifacts_GR0</text>
<g id="a_node3_3"><a xlink:href="yProv4MLexperiment_dir" xlink:title="&lt;TABLE&gt;">
<text text-anchor="start" x="3073.98" y="-663.86" font-family="Times,serif" font-size="10.00">yProv4ML:experiment_dir</text>
</a>
</g>
<text text-anchor="start" x="3196.98" y="-663.86" font-family="Times,serif" font-size="10.00">/content/functional_decomposition_0</text>
<g id="a_node3_4"><a xlink:href="yProv4MLexperiment_name" xlink:title="&lt;TABLE&gt;">
<text text-anchor="start" x="3073.98" y="-650.86" font-family="Times,serif" font-size="10.00">yProv4ML:experiment_name</text>
</a>
</g>
<text text-anchor="start" x="3196.98" y="-650.86" font-family="Times,serif" font-size="10.00">functional_decomposition_GR0_0</text>
<g id="a_node3_5"><a xlink:href="yProv4MLglobal_rank" xlink:title="&lt;TABLE&gt;">
<text text-anchor="start" x="3073.98" y="-637.86" font-family="Times,serif" font-size="10.00">yProv4ML:global_rank</text>
</a>
</g>
<text text-anchor="start" x="3196.98" y="-637.86" font-family="Times,serif" font-size="10.00">0</text>
<g id="a_node3_6"><a xlink:href="yProv4MLlevel" xlink:title="&lt;TABLE&gt;">
<text text-anchor="start" x="3073.98" y="-624.86" font-family="Times,serif" font-size="10.00">yProv4ML:level</text>
</a>
</g>
<text text-anchor="start" x="3196.98" y="-624.86" font-family="Times,serif" font-size="10.00">0</text>
<g id="a_node3_7"><a xlink:href="yProv4MLprovenance_path" xlink:title="&lt;TABLE&gt;">
<text text-anchor="start" x="3073.98" y="-611.86" font-family="Times,serif" font-size="10.00">yProv4ML:provenance_path</text>
</a>
</g>
<text text-anchor="start" x="3196.98" y="-611.86" font-family="Times,serif" font-size="10.00">/content/</text>
<g id="a_node3_8"><a xlink:href="yProv4MLpython_version" xlink:title="&lt;TABLE&gt;">
<text text-anchor="start" x="3073.98" y="-598.86" font-family="Times,serif" font-size="10.00">yProv4ML:python_version</text>
</a>
</g>
<text text-anchor="start" x="3196.98" y="-598.86" font-family="Times,serif" font-size="10.00">3.12.12 (main, Oct 10 2025, 08:52:57) [GCC 11.4.0]</text>
<g id="a_node3_9"><a xlink:href="yProv4MLrun_id" xlink:title="&lt;TABLE&gt;">
<text text-anchor="start" x="3073.98" y="-585.86" font-family="Times,serif" font-size="10.00">yProv4ML:run_id</text>
</a>
</g>
<text text-anchor="start" x="3196.98" y="-585.86" font-family="Times,serif" font-size="10.00">0</text>
</g>
<!-- ann1&#45;&gt;n2 -->
<g id="edge1" class="edge">
<title>ann1&#45;&gt;n2</title>
<path fill="none" stroke="gray" stroke-dasharray="5,2" d="M3063.23,-648.87C2741.37,-650.28 2043.6,-643.26 1460.98,-567.86 1352.01,-553.75 1227.73,-524.11 1153.32,-504.86"/>
</g>
<!-- n3 -->
<g id="node4" class="node">
<title>n3</title>
<g id="a_node4"><a xlink:href="contextContext.TRAINING" xlink:title="context:Context.TRAINING">
<polygon fill="#9fb1fc" stroke="#0000ff" points="3328.98,-558.86 3156.98,-558.86 3156.98,-522.86 3328.98,-522.86 3328.98,-558.86"/>
<text text-anchor="middle" x="3242.98" y="-537.16" font-family="Times,serif" font-size="14.00">context:Context.TRAINING</text>
</a>
</g>
</g>
<!-- n3&#45;&gt;n2 -->
<g id="edge16" class="edge">
<title>n3&#45;&gt;n2</title>
<path fill="none" stroke="black" d="M3156.66,-541.28C2900.06,-542.19 2112.85,-542.28 1460.98,-513.86 1381.1,-510.37 1291.78,-504.02 1220.43,-498.36"/>
<polygon fill="black" stroke="black" points="1220.28,-494.84 1210.03,-497.53 1219.72,-501.81 1220.28,-494.84"/>
<text text-anchor="middle" x="1410.48" y="-515.86" font-family="Times,serif" font-size="10.00">wasInformedBy</text>
</g>
<!-- ann2 -->
<g id="node5" class="node">
<title>ann2</title>
<polygon fill="none" stroke="gray" points="5151.98,-558.86 5061.98,-558.86 5061.98,-522.86 5157.98,-522.86 5157.98,-552.86 5151.98,-558.86"/>
<polyline fill="none" stroke="gray" points="5151.98,-558.86 5151.98,-552.86 "/>
<polyline fill="none" stroke="gray" points="5157.98,-552.86 5151.98,-552.86 "/>
<g id="a_node5_10"><a xlink:href="yProv4MLlevel" xlink:title="&lt;TABLE&gt;">
<text text-anchor="start" x="5071.98" y="-537.86" font-family="Times,serif" font-size="10.00">yProv4ML:level</text>
</a>
</g>
<text text-anchor="start" x="5141.98" y="-537.86" font-family="Times,serif" font-size="10.00">1</text>
</g>
<!-- ann2&#45;&gt;n3 -->
<g id="edge2" class="edge">
<title>ann2&#45;&gt;n3</title>
<path fill="none" stroke="gray" stroke-dasharray="5,2" d="M5061.95,-540.86C4813.67,-540.86 3654.63,-540.86 3329.17,-540.86"/>
</g>
<!-- n4 -->
<g id="node6" class="node">
<title>n4</title>
<g id="a_node6"><a xlink:href="contextContext.VALIDATION" xlink:title="context:Context.VALIDATION">
<polygon fill="#9fb1fc" stroke="#0000ff" points="3336.98,-504.86 3148.98,-504.86 3148.98,-468.86 3336.98,-468.86 3336.98,-504.86"/>
<text text-anchor="middle" x="3242.98" y="-483.16" font-family="Times,serif" font-size="14.00">context:Context.VALIDATION</text>
</a>
</g>
</g>
<!-- n4&#45;&gt;n2 -->
<g id="edge17" class="edge">
<title>n4&#45;&gt;n2</title>
<path fill="none" stroke="black" d="M3148.68,-486.86C2806.61,-486.86 1620.41,-486.86 1219.91,-486.86"/>
<polygon fill="black" stroke="black" points="1219.73,-483.36 1209.73,-486.86 1219.73,-490.36 1219.73,-483.36"/>
<text text-anchor="middle" x="1410.48" y="-489.86" font-family="Times,serif" font-size="10.00">wasInformedBy</text>
</g>
<!-- ann3 -->
<g id="node7" class="node">
<title>ann3</title>
<polygon fill="none" stroke="gray" points="5151.98,-504.86 5061.98,-504.86 5061.98,-468.86 5157.98,-468.86 5157.98,-498.86 5151.98,-504.86"/>
<polyline fill="none" stroke="gray" points="5151.98,-504.86 5151.98,-498.86 "/>
<polyline fill="none" stroke="gray" points="5157.98,-498.86 5151.98,-498.86 "/>
<g id="a_node7_11"><a xlink:href="yProv4MLlevel" xlink:title="&lt;TABLE&gt;">
<text text-anchor="start" x="5071.98" y="-483.86" font-family="Times,serif" font-size="10.00">yProv4ML:level</text>
</a>
</g>
<text text-anchor="start" x="5141.98" y="-483.86" font-family="Times,serif" font-size="10.00">1</text>
</g>
<!-- ann3&#45;&gt;n4 -->
<g id="edge3" class="edge">
<title>ann3&#45;&gt;n4</title>
<path fill="none" stroke="gray" stroke-dasharray="5,2" d="M5061.95,-486.86C4815.65,-486.86 3673.06,-486.86 3337.12,-486.86"/>
</g>
<!-- n5 -->
<g id="node8" class="node">
<title>n5</title>
<g id="a_node8"><a xlink:href="contextContext.TESTING" xlink:title="context:Context.TESTING">
<polygon fill="#9fb1fc" stroke="#0000ff" points="3324.48,-450.86 3161.48,-450.86 3161.48,-414.86 3324.48,-414.86 3324.48,-450.86"/>
<text text-anchor="middle" x="3242.98" y="-429.16" font-family="Times,serif" font-size="14.00">context:Context.TESTING</text>
</a>
</g>
</g>
<!-- n5&#45;&gt;n2 -->
<g id="edge18" class="edge">
<title>n5&#45;&gt;n2</title>
<path fill="none" stroke="black" d="M3161.17,-432.45C2909.39,-431.52 2116.72,-431.26 1460.98,-459.86 1381.1,-463.34 1291.78,-469.69 1220.43,-475.35"/>
<polygon fill="black" stroke="black" points="1219.72,-471.9 1210.03,-476.18 1220.28,-478.88 1219.72,-471.9"/>
<text text-anchor="middle" x="1410.48" y="-466.86" font-family="Times,serif" font-size="10.00">wasInformedBy</text>
</g>
<!-- ann4 -->
<g id="node9" class="node">
<title>ann4</title>
<polygon fill="none" stroke="gray" points="5151.98,-450.86 5061.98,-450.86 5061.98,-414.86 5157.98,-414.86 5157.98,-444.86 5151.98,-450.86"/>
<polyline fill="none" stroke="gray" points="5151.98,-450.86 5151.98,-444.86 "/>
<polyline fill="none" stroke="gray" points="5157.98,-444.86 5151.98,-444.86 "/>
<g id="a_node9_12"><a xlink:href="yProv4MLlevel" xlink:title="&lt;TABLE&gt;">
<text text-anchor="start" x="5071.98" y="-429.86" font-family="Times,serif" font-size="10.00">yProv4ML:level</text>
</a>
</g>
<text text-anchor="start" x="5141.98" y="-429.86" font-family="Times,serif" font-size="10.00">1</text>
</g>
<!-- ann4&#45;&gt;n5 -->
<g id="edge4" class="edge">
<title>ann4&#45;&gt;n5</title>
<path fill="none" stroke="gray" stroke-dasharray="5,2" d="M5061.95,-432.86C4812.47,-432.86 3643.39,-432.86 3324.51,-432.86"/>
</g>
<!-- n6 -->
<g id="node10" class="node">
<title>n6</title>
<g id="a_node10"><a xlink:href="contextContext.DATASETS" xlink:title="context:Context.DATASETS">
<polygon fill="#9fb1fc" stroke="#0000ff" points="3329.48,-338.86 3156.48,-338.86 3156.48,-302.86 3329.48,-302.86 3329.48,-338.86"/>
<text text-anchor="middle" x="3242.98" y="-317.16" font-family="Times,serif" font-size="14.00">context:Context.DATASETS</text>
</a>
</g>
</g>
<!-- n6&#45;&gt;n2 -->
<g id="edge19" class="edge">
<title>n6&#45;&gt;n2</title>
<path fill="none" stroke="black" d="M3156.45,-307.74C2895.99,-270.85 2091.98,-179.72 1460.98,-351.86 1420.09,-363.01 1404.92,-366.12 1377.98,-398.86 1361.91,-418.39 1379.55,-436.82 1359.98,-452.86 1321.31,-484.54 1268.63,-496.02 1219.84,-498.51"/>
<polygon fill="black" stroke="black" points="1219.67,-495.01 1209.82,-498.9 1219.94,-502.01 1219.67,-495.01"/>
<text text-anchor="middle" x="1410.48" y="-401.86" font-family="Times,serif" font-size="10.00">wasInformedBy</text>
</g>
<!-- n8 -->
<g id="node14" class="node">
<title>n8</title>
<g id="a_node14"><a xlink:href="functional_decomposition_GR0_0           time       value       trend  seasonality      noise
0    2003-01-01    8.820262    0.000000     0.000000   8.820262
1    2003-01-02    2.399855    0.054802     0.344267   2.000786
2    2003-01-03    5.691726    0.109604     0.688432   4.893690
3    2003-01-04   12.401265    0.164406     1.032393  11.204466
4    2003-01-05   10.933047    0.219208     1.376049   9.337790
...         ...         ...         ...          ...        ...
7295 2022-12-22  395.556860  399.780792    -1.719296  -2.504636
7296 2022-12-23  404.984182  399.835594    -1.376049   6.524637
7297 2022-12-24  393.007700  399.890396    -1.032393  -5.850303
7298 2022-12-25  401.393451  399.945198    -0.688432   2.136685
7299 2022-12-26  397.221350  400.000000    -0.344267  -2.434383

[7300 rows x 5 columns]" xlink:title=" &#160;&#160;&#160;&#160;&#160;&#160;&#160;&#160;&#160;&#160;time &#160;&#160;&#160;&#160;&#160;&#160;value &#160;&#160;&#160;&#160;&#160;&#160;trend &#160;seasonality &#160;&#160;&#160;&#160;&#160;noise&#10;0 &#160;&#160;&#160;2003&#45;01&#45;01 &#160;&#160;&#160;8.820262 &#160;&#160;&#160;0.000000 &#160;&#160;&#160;&#160;0.000000 &#160;&#160;8.820262&#10;1 &#160;&#160;&#160;2003&#45;01&#45;02 &#160;&#160;&#160;2.399855 &#160;&#160;&#160;0.054802 &#160;&#160;&#160;&#160;0.344267 &#160;&#160;2.000786&#10;2 &#160;&#160;&#160;2003&#45;01&#45;03 &#160;&#160;&#160;5.691726 &#160;&#160;&#160;0.109604 &#160;&#160;&#160;&#160;0.688432 &#160;&#160;4.893690&#10;3 &#160;&#160;&#160;2003&#45;01&#45;04 &#160;&#160;12.401265 &#160;&#160;&#160;0.164406 &#160;&#160;&#160;&#160;1.032393 &#160;11.204466&#10;4 &#160;&#160;&#160;2003&#45;01&#45;05 &#160;&#160;10.933047 &#160;&#160;&#160;0.219208 &#160;&#160;&#160;&#160;1.376049 &#160;&#160;9.337790&#10;... &#160;&#160;&#160;&#160;&#160;&#160;&#160;&#160;... &#160;&#160;&#160;&#160;&#160;&#160;&#160;&#160;... &#160;&#160;&#160;&#160;&#160;&#160;&#160;&#160;... &#160;&#160;&#160;&#160;&#160;&#160;&#160;&#160;&#160;... &#160;&#160;&#160;&#160;&#160;&#160;&#160;...&#10;7295 2022&#45;12&#45;22 &#160;395.556860 &#160;399.780792 &#160;&#160;&#160;&#45;1.719296 &#160;&#45;2.504636&#10;7296 2022&#45;12&#45;23 &#160;404.984182 &#160;399.835594 &#160;&#160;&#160;&#45;1.376049 &#160;&#160;6.524637&#10;7297 2022&#45;12&#45;24 &#160;393.007700 &#160;399.890396 &#160;&#160;&#160;&#45;1.032393 &#160;&#45;5.850303&#10;7298 2022&#45;12&#45;25 &#160;401.393451 &#160;399.945198 &#160;&#160;&#160;&#45;0.688432 &#160;&#160;2.136685&#10;7299 2022&#45;12&#45;26 &#160;397.221350 &#160;400.000000 &#160;&#160;&#160;&#45;0.344267 &#160;&#45;2.434383&#10;&#10;[7300 rows x 5 columns]">
<ellipse fill="#fffc87" stroke="#808080" cx="1085.63" cy="-154.86" rx="274.21" ry="154.71"/>
<text text-anchor="middle" x="1085.63" y="-249.16" font-family="Times,serif" font-size="14.00"> &#160;&#160;&#160;&#160;&#160;&#160;&#160;&#160;&#160;&#160;time &#160;&#160;&#160;&#160;&#160;&#160;value &#160;&#160;&#160;&#160;&#160;&#160;trend &#160;seasonality &#160;&#160;&#160;&#160;&#160;noise</text>
<text text-anchor="middle" x="1085.63" y="-234.16" font-family="Times,serif" font-size="14.00">0 &#160;&#160;&#160;2003&#45;01&#45;01 &#160;&#160;&#160;8.820262 &#160;&#160;&#160;0.000000 &#160;&#160;&#160;&#160;0.000000 &#160;&#160;8.820262</text>
<text text-anchor="middle" x="1085.63" y="-219.16" font-family="Times,serif" font-size="14.00">1 &#160;&#160;&#160;2003&#45;01&#45;02 &#160;&#160;&#160;2.399855 &#160;&#160;&#160;0.054802 &#160;&#160;&#160;&#160;0.344267 &#160;&#160;2.000786</text>
<text text-anchor="middle" x="1085.63" y="-204.16" font-family="Times,serif" font-size="14.00">2 &#160;&#160;&#160;2003&#45;01&#45;03 &#160;&#160;&#160;5.691726 &#160;&#160;&#160;0.109604 &#160;&#160;&#160;&#160;0.688432 &#160;&#160;4.893690</text>
<text text-anchor="middle" x="1085.63" y="-189.16" font-family="Times,serif" font-size="14.00">3 &#160;&#160;&#160;2003&#45;01&#45;04 &#160;&#160;12.401265 &#160;&#160;&#160;0.164406 &#160;&#160;&#160;&#160;1.032393 &#160;11.204466</text>
<text text-anchor="middle" x="1085.63" y="-174.16" font-family="Times,serif" font-size="14.00">4 &#160;&#160;&#160;2003&#45;01&#45;05 &#160;&#160;10.933047 &#160;&#160;&#160;0.219208 &#160;&#160;&#160;&#160;1.376049 &#160;&#160;9.337790</text>
<text text-anchor="middle" x="1085.63" y="-159.16" font-family="Times,serif" font-size="14.00">... &#160;&#160;&#160;&#160;&#160;&#160;&#160;&#160;... &#160;&#160;&#160;&#160;&#160;&#160;&#160;&#160;... &#160;&#160;&#160;&#160;&#160;&#160;&#160;&#160;... &#160;&#160;&#160;&#160;&#160;&#160;&#160;&#160;&#160;... &#160;&#160;&#160;&#160;&#160;&#160;&#160;...</text>
<text text-anchor="middle" x="1085.63" y="-144.16" font-family="Times,serif" font-size="14.00">7295 2022&#45;12&#45;22 &#160;395.556860 &#160;399.780792 &#160;&#160;&#160;&#45;1.719296 &#160;&#45;2.504636</text>
<text text-anchor="middle" x="1085.63" y="-129.16" font-family="Times,serif" font-size="14.00">7296 2022&#45;12&#45;23 &#160;404.984182 &#160;399.835594 &#160;&#160;&#160;&#45;1.376049 &#160;&#160;6.524637</text>
<text text-anchor="middle" x="1085.63" y="-114.16" font-family="Times,serif" font-size="14.00">7297 2022&#45;12&#45;24 &#160;393.007700 &#160;399.890396 &#160;&#160;&#160;&#45;1.032393 &#160;&#45;5.850303</text>
<text text-anchor="middle" x="1085.63" y="-99.16" font-family="Times,serif" font-size="14.00">7298 2022&#45;12&#45;25 &#160;401.393451 &#160;399.945198 &#160;&#160;&#160;&#45;0.688432 &#160;&#160;2.136685</text>
<text text-anchor="middle" x="1085.63" y="-84.16" font-family="Times,serif" font-size="14.00">7299 2022&#45;12&#45;26 &#160;397.221350 &#160;400.000000 &#160;&#160;&#160;&#45;0.344267 &#160;&#45;2.434383</text>
<text text-anchor="middle" x="1085.63" y="-53.16" font-family="Times,serif" font-size="14.00">[7300 rows x 5 columns]</text>
</a>
</g>
</g>
<!-- n6&#45;&gt;n8 -->
<g id="edge21" class="edge">
<title>n6&#45;&gt;n8</title>
<path fill="none" stroke="#8b0000" d="M3156.17,-315.88C2898.99,-300.73 2112.08,-252.65 1460.98,-194.86 1429.86,-192.09 1397.31,-188.97 1364.94,-185.71"/>
<polygon fill="#8b0000" stroke="#8b0000" points="1365.21,-182.22 1354.9,-184.7 1364.5,-189.18 1365.21,-182.22"/>
<text text-anchor="middle" x="1410.48" y="-196.86" font-family="Times,serif" font-size="10.00" fill="red">used</text>
</g>
<!-- ann5 -->
<g id="node11" class="node">
<title>ann5</title>
<polygon fill="none" stroke="gray" points="5151.98,-338.86 5061.98,-338.86 5061.98,-302.86 5157.98,-302.86 5157.98,-332.86 5151.98,-338.86"/>
<polyline fill="none" stroke="gray" points="5151.98,-338.86 5151.98,-332.86 "/>
<polyline fill="none" stroke="gray" points="5157.98,-332.86 5151.98,-332.86 "/>
<g id="a_node11_13"><a xlink:href="yProv4MLlevel" xlink:title="&lt;TABLE&gt;">
<text text-anchor="start" x="5071.98" y="-317.86" font-family="Times,serif" font-size="10.00">yProv4ML:level</text>
</a>
</g>
<text text-anchor="start" x="5141.98" y="-317.86" font-family="Times,serif" font-size="10.00">1</text>
</g>
<!-- ann5&#45;&gt;n6 -->
<g id="edge5" class="edge">
<title>ann5&#45;&gt;n6</title>
<path fill="none" stroke="gray" stroke-dasharray="5,2" d="M5061.95,-320.86C4813.81,-320.86 3655.95,-320.86 3329.73,-320.86"/>
</g>
<!-- n7 -->
<g id="node12" class="node">
<title>n7</title>
<g id="a_node12"><a xlink:href="contextContext.MODELS" xlink:title="context:Context.MODELS">
<polygon fill="#9fb1fc" stroke="#0000ff" points="3324.48,-396.86 3161.48,-396.86 3161.48,-360.86 3324.48,-360.86 3324.48,-396.86"/>
<text text-anchor="middle" x="3242.98" y="-375.16" font-family="Times,serif" font-size="14.00">context:Context.MODELS</text>
</a>
</g>
</g>
<!-- n7&#45;&gt;n2 -->
<g id="edge20" class="edge">
<title>n7&#45;&gt;n2</title>
<path fill="none" stroke="black" d="M3161.29,-375.62C2858.55,-364.19 1790.85,-330.24 1460.98,-405.86 1454.95,-407.24 1365.93,-451.15 1359.98,-452.86 1315.22,-465.71 1264.96,-473.71 1219.85,-478.68"/>
<polygon fill="black" stroke="black" points="1219.29,-475.22 1209.71,-479.76 1220.03,-482.18 1219.29,-475.22"/>
<text text-anchor="middle" x="1410.48" y="-446.86" font-family="Times,serif" font-size="10.00">wasInformedBy</text>
</g>
<!-- ann6 -->
<g id="node13" class="node">
<title>ann6</title>
<polygon fill="none" stroke="gray" points="5151.98,-396.86 5061.98,-396.86 5061.98,-360.86 5157.98,-360.86 5157.98,-390.86 5151.98,-396.86"/>
<polyline fill="none" stroke="gray" points="5151.98,-396.86 5151.98,-390.86 "/>
<polyline fill="none" stroke="gray" points="5157.98,-390.86 5151.98,-390.86 "/>
<g id="a_node13_14"><a xlink:href="yProv4MLlevel" xlink:title="&lt;TABLE&gt;">
<text text-anchor="start" x="5071.98" y="-375.86" font-family="Times,serif" font-size="10.00">yProv4ML:level</text>
</a>
</g>
<text text-anchor="start" x="5141.98" y="-375.86" font-family="Times,serif" font-size="10.00">1</text>
</g>
<!-- ann6&#45;&gt;n7 -->
<g id="edge6" class="edge">
<title>ann6&#45;&gt;n7</title>
<path fill="none" stroke="gray" stroke-dasharray="5,2" d="M5061.95,-378.86C4812.47,-378.86 3643.39,-378.86 3324.51,-378.86"/>
</g>
<!-- ann7 -->
<g id="node15" class="node">
<title>ann7</title>
<polygon fill="none" stroke="gray" points="5018.98,-185.86 1460.98,-185.86 1460.98,-123.86 5024.98,-123.86 5024.98,-179.86 5018.98,-185.86"/>
<polyline fill="none" stroke="gray" points="5018.98,-185.86 5018.98,-179.86 "/>
<polyline fill="none" stroke="gray" points="5024.98,-179.86 5018.98,-179.86 "/>
<g id="a_node15_15"><a xlink:href="functional_decomposition_GR0_0           time       value       trend  seasonality      noise 0    2003-01-01    8.820262    0.000000     0.000000   8.820262 1    2003-01-02    2.399855    0.054802     0.344267   2.000786 2    2003-01-03    5.691726    0.109604     0.688432   4.893690 3    2003-01-04   12.401265    0.164406     1.032393  11.204466 4    2003-01-05   10.933047    0.219208     1.376049   9.337790 ...         ...         ...         ...          ...        ... 7295 2022-12-22  395.556860  399.780792    -1.719296  -2.504636 7296 2022-12-23  404.984182  399.835594    -1.376049   6.524637 7297 2022-12-24  393.007700  399.890396    -1.032393  -5.850303 7298 2022-12-25  401.393451  399.945198    -0.688432   2.136685 7299 2022-12-26  397.221350  400.000000    -0.344267  -2.434383  [7300 rows x 5 columns]_stat_total_samples" xlink:title="&lt;TABLE&gt;">
<text text-anchor="start" x="1470.98" y="-171.86" font-family="Times,serif" font-size="10.00"> &#160;&#160;&#160;&#160;&#160;&#160;&#160;&#160;&#160;&#160;time &#160;&#160;&#160;&#160;&#160;&#160;value &#160;&#160;&#160;&#160;&#160;&#160;trend &#160;seasonality &#160;&#160;&#160;&#160;&#160;noise0 &#160;&#160;&#160;2003&#45;01&#45;01 &#160;&#160;&#160;8.820262 &#160;&#160;&#160;0.000000 &#160;&#160;&#160;&#160;0.000000 &#160;&#160;8.8202621 &#160;&#160;&#160;2003&#45;01&#45;02 &#160;&#160;&#160;2.399855 &#160;&#160;&#160;0.054802 &#160;&#160;&#160;&#160;0.344267 &#160;&#160;2.0007862 &#160;&#160;&#160;2003&#45;01&#45;03 &#160;&#160;&#160;5.691726 &#160;&#160;&#160;0.109604 &#160;&#160;&#160;&#160;0.688432 &#160;&#160;4.8936903 &#160;&#160;&#160;2003&#45;01&#45;04 &#160;&#160;12.401265 &#160;&#160;&#160;0.164406 &#160;&#160;&#160;&#160;1.032393 &#160;11.2044664 &#160;&#160;&#160;2003&#45;01&#45;05 &#160;&#160;10.933047 &#160;&#160;&#160;0.219208 &#160;&#160;&#160;&#160;1.376049 &#160;&#160;9.337790... &#160;&#160;&#160;&#160;&#160;&#160;&#160;&#160;... &#160;&#160;&#160;&#160;&#160;&#160;&#160;&#160;... &#160;&#160;&#160;&#160;&#160;&#160;&#160;&#160;... &#160;&#160;&#160;&#160;&#160;&#160;&#160;&#160;&#160;... &#160;&#160;&#160;&#160;&#160;&#160;&#160;...7295 2022&#45;12&#45;22 &#160;395.556860 &#160;399.780792 &#160;&#160;&#160;&#45;1.719296 &#160;&#45;2.5046367296 2022&#45;12&#45;23 &#160;404.984182 &#160;399.835594 &#160;&#160;&#160;&#45;1.376049 &#160;&#160;6.5246377297 2022&#45;12&#45;24 &#160;393.007700 &#160;399.890396 &#160;&#160;&#160;&#45;1.032393 &#160;&#45;5.8503037298 2022&#45;12&#45;25 &#160;401.393451 &#160;399.945198 &#160;&#160;&#160;&#45;0.688432 &#160;&#160;2.1366857299 2022&#45;12&#45;26 &#160;397.221350 &#160;400.000000 &#160;&#160;&#160;&#45;0.344267 &#160;&#45;2.434383[7300 rows x 5 columns]_stat_total_samples</text>
</a>
</g>
<text text-anchor="start" x="4661.98" y="-171.86" font-family="Times,serif" font-size="10.00">16</text>
<g id="a_node15_16"><a xlink:href="yProv4MLlabel" xlink:title="&lt;TABLE&gt;">
<text text-anchor="start" x="1470.98" y="-158.86" font-family="Times,serif" font-size="10.00">yProv4ML:label</text>
</a>
</g>
<text text-anchor="start" x="4661.98" y="-158.86" font-family="Times,serif" font-size="10.00"> &#160;&#160;&#160;&#160;&#160;&#160;&#160;&#160;&#160;&#160;time &#160;&#160;&#160;&#160;&#160;&#160;value &#160;&#160;&#160;&#160;&#160;&#160;trend &#160;seasonality &#160;&#160;&#160;&#160;&#160;noise0 &#160;&#160;&#160;2003&#45;01&#45;01 &#160;&#160;&#160;8.820262 &#160;&#160;&#160;0.000...</text>
<g id="a_node15_17"><a xlink:href="yProv4MLpath" xlink:title="&lt;TABLE&gt;">
<text text-anchor="start" x="1470.98" y="-145.86" font-family="Times,serif" font-size="10.00">yProv4ML:path</text>
</a>
</g>
<g id="a_node15_18"><a xlink:href="yProv4MLrole" xlink:title="&lt;TABLE&gt;">
<text text-anchor="start" x="1470.98" y="-132.86" font-family="Times,serif" font-size="10.00">yProv4ML:role</text>
</a>
</g>
<text text-anchor="start" x="4661.98" y="-132.86" font-family="Times,serif" font-size="10.00">input</text>
</g>
<!-- ann7&#45;&gt;n8 -->
<g id="edge7" class="edge">
<title>ann7&#45;&gt;n8</title>
<path fill="none" stroke="gray" stroke-dasharray="5,2" d="M1460.83,-154.86C1425.38,-154.86 1391.74,-154.86 1360.22,-154.86"/>
</g>
<!-- n9 -->
<g id="node16" class="node">
<title>n9</title>
<g id="a_node16"><a xlink:href="functional_decomposition_GR0_0Original rolling_mean" xlink:title="Original rolling_mean">
<ellipse fill="#fffc87" stroke="#808080" cx="103.99" cy="-651.86" rx="89.88" ry="18"/>
<text text-anchor="middle" x="103.99" y="-648.16" font-family="Times,serif" font-size="14.00">Original rolling_mean</text>
</a>
</g>
</g>
<!-- n9&#45;&gt;n2 -->
<g id="edge22" class="edge">
<title>n9&#45;&gt;n2</title>
<path fill="none" stroke="darkgreen" d="M175.27,-640.9C243.66,-630.17 350.51,-613.24 442.98,-597.86 628.79,-566.94 844.52,-529.25 972.53,-506.7"/>
<polygon fill="darkgreen" stroke="darkgreen" points="973.49,-510.08 982.73,-504.9 972.28,-503.19 973.49,-510.08"/>
<text text-anchor="middle" x="495.98" y="-596.86" font-family="Times,serif" font-size="10.00" fill="darkgreen">wasGeneratedBy</text>
</g>
<!-- ann8 -->
<g id="node17" class="node">
<title>ann8</title>
<polygon fill="none" stroke="gray" points="428.98,-775.36 252.98,-775.36 252.98,-726.36 434.98,-726.36 434.98,-769.36 428.98,-775.36"/>
<polyline fill="none" stroke="gray" points="428.98,-775.36 428.98,-769.36 "/>
<polyline fill="none" stroke="gray" points="434.98,-769.36 428.98,-769.36 "/>
<g id="a_node17_19"><a xlink:href="yProv4MLlabel" xlink:title="&lt;TABLE&gt;">
<text text-anchor="start" x="262.98" y="-760.86" font-family="Times,serif" font-size="10.00">yProv4ML:label</text>
</a>
</g>
<text text-anchor="start" x="332.98" y="-760.86" font-family="Times,serif" font-size="10.00">Original rolling_mean</text>
<g id="a_node17_20"><a xlink:href="yProv4MLpath" xlink:title="&lt;TABLE&gt;">
<text text-anchor="start" x="262.98" y="-747.86" font-family="Times,serif" font-size="10.00">yProv4ML:path</text>
</a>
</g>
<text text-anchor="start" x="332.98" y="-747.86" font-family="Times,serif" font-size="10.00">rolling_mean</text>
<g id="a_node17_21"><a xlink:href="yProv4MLrole" xlink:title="&lt;TABLE&gt;">
<text text-anchor="start" x="262.98" y="-734.86" font-family="Times,serif" font-size="10.00">yProv4ML:role</text>
</a>
</g>
<text text-anchor="start" x="332.98" y="-734.86" font-family="Times,serif" font-size="10.00">output</text>
</g>
<!-- ann8&#45;&gt;n9 -->
<g id="edge8" class="edge">
<title>ann8&#45;&gt;n9</title>
<path fill="none" stroke="gray" stroke-dasharray="5,2" d="M269.63,-726.32C261.27,-723.25 252.91,-720.06 244.98,-716.86 207.97,-701.89 166.62,-682.32 138.52,-668.58"/>
</g>
<!-- b2 -->
<g id="node29" class="node">
<title>b2</title>
<ellipse fill="gray" stroke="gray" cx="343.98" cy="-651.86" rx="1.8" ry="1.8"/>
</g>
<!-- n10&#45;&gt;b2 -->
<g id="edge24" class="edge">
<title>n10&#45;&gt;b2</title>
<path fill="none" stroke="black" d="M563.12,-651.86C486.3,-651.86 357.75,-651.86 345.87,-651.86"/>
<text text-anchor="middle" x="495.98" y="-654.86" font-family="Times,serif" font-size="10.00">wasDerivedFrom</text>
</g>
<!-- ann9 -->
<g id="node19" class="node">
<title>ann9</title>
<polygon fill="none" stroke="gray" points="1261.63,-723.36 903.63,-723.36 903.63,-674.36 1267.63,-674.36 1267.63,-717.36 1261.63,-723.36"/>
<polyline fill="none" stroke="gray" points="1261.63,-723.36 1261.63,-717.36 "/>
<polyline fill="none" stroke="gray" points="1267.63,-717.36 1261.63,-717.36 "/>
<g id="a_node19_22"><a xlink:href="yProv4MLlabel" xlink:title="&lt;TABLE&gt;">
<text text-anchor="start" x="913.63" y="-708.86" font-family="Times,serif" font-size="10.00">yProv4ML:label</text>
</a>
</g>
<text text-anchor="start" x="983.63" y="-708.86" font-family="Times,serif" font-size="10.00">rolling_mean</text>
<g id="a_node19_23"><a xlink:href="yProv4MLpath" xlink:title="&lt;TABLE&gt;">
<text text-anchor="start" x="913.63" y="-695.86" font-family="Times,serif" font-size="10.00">yProv4ML:path</text>
</a>
</g>
<text text-anchor="start" x="983.63" y="-695.86" font-family="Times,serif" font-size="10.00">/content/functional_decomposition_0/artifacts_GR0/rolling_mean</text>
<g id="a_node19_24"><a xlink:href="yProv4MLrole" xlink:title="&lt;TABLE&gt;">
<text text-anchor="start" x="913.63" y="-682.86" font-family="Times,serif" font-size="10.00">yProv4ML:role</text>
</a>
</g>
<text text-anchor="start" x="983.63" y="-682.86" font-family="Times,serif" font-size="10.00">input</text>
</g>
<!-- ann9&#45;&gt;n10 -->
<g id="edge9" class="edge">
<title>ann9&#45;&gt;n10</title>
<path fill="none" stroke="gray" stroke-dasharray="5,2" d="M903.35,-703.56C841.89,-702.11 773.14,-697.14 711.27,-684.86 708.44,-684.29 682.04,-674.48 658.7,-665.7"/>
</g>
<!-- n11 -->
<g id="node20" class="node">
<title>n11</title>
<g id="a_node20"><a xlink:href="functional_decomposition_GR0_0Original rolling_mean.csv" xlink:title="Original rolling_mean.csv">
<ellipse fill="#fffc87" stroke="#808080" cx="103.99" cy="-510.86" rx="103.98" ry="18"/>
<text text-anchor="middle" x="103.99" y="-507.16" font-family="Times,serif" font-size="14.00">Original rolling_mean.csv</text>
</a>
</g>
</g>
<!-- n11&#45;&gt;n2 -->
<g id="edge26" class="edge">
<title>n11&#45;&gt;n2</title>
<path fill="none" stroke="darkgreen" d="M207.55,-508.78C324.94,-506.35 522.98,-502.13 693.27,-497.86 779.11,-495.7 875.53,-492.99 951.19,-490.81"/>
<polygon fill="darkgreen" stroke="darkgreen" points="951.35,-494.3 961.25,-490.51 951.15,-487.31 951.35,-494.3"/>
<text text-anchor="middle" x="495.98" y="-505.86" font-family="Times,serif" font-size="10.00" fill="darkgreen">wasGeneratedBy</text>
</g>
<!-- ann10 -->
<g id="node21" class="node">
<title>ann10</title>
<polygon fill="none" stroke="gray" points="436.98,-588.36 244.98,-588.36 244.98,-539.36 442.98,-539.36 442.98,-582.36 436.98,-588.36"/>
<polyline fill="none" stroke="gray" points="436.98,-588.36 436.98,-582.36 "/>
<polyline fill="none" stroke="gray" points="442.98,-582.36 436.98,-582.36 "/>
<g id="a_node21_25"><a xlink:href="yProv4MLlabel" xlink:title="&lt;TABLE&gt;">
<text text-anchor="start" x="254.98" y="-573.86" font-family="Times,serif" font-size="10.00">yProv4ML:label</text>
</a>
</g>
<text text-anchor="start" x="324.98" y="-573.86" font-family="Times,serif" font-size="10.00">Original rolling_mean.csv</text>
<g id="a_node21_26"><a xlink:href="yProv4MLpath" xlink:title="&lt;TABLE&gt;">
<text text-anchor="start" x="254.98" y="-560.86" font-family="Times,serif" font-size="10.00">yProv4ML:path</text>
</a>
</g>
<text text-anchor="start" x="324.98" y="-560.86" font-family="Times,serif" font-size="10.00">rolling_mean.csv</text>
<g id="a_node21_27"><a xlink:href="yProv4MLrole" xlink:title="&lt;TABLE&gt;">
<text text-anchor="start" x="254.98" y="-547.86" font-family="Times,serif" font-size="10.00">yProv4ML:role</text>
</a>
</g>
<text text-anchor="start" x="324.98" y="-547.86" font-family="Times,serif" font-size="10.00">output</text>
</g>
<!-- ann10&#45;&gt;n11 -->
<g id="edge10" class="edge">
<title>ann10&#45;&gt;n11</title>
<path fill="none" stroke="gray" stroke-dasharray="5,2" d="M244.81,-541.99C219.07,-536.26 191.99,-530.23 168.59,-525.02"/>
</g>
<!-- b3 -->
<g id="node30" class="node">
<title>b3</title>
<ellipse fill="gray" stroke="gray" cx="343.98" cy="-475.86" rx="1.8" ry="1.8"/>
</g>
<!-- n12&#45;&gt;b3 -->
<g id="edge28" class="edge">
<title>n12&#45;&gt;b3</title>
<path fill="none" stroke="black" d="M548.91,-472.15C472.48,-473.54 360.12,-475.58 346.38,-475.83"/>
<text text-anchor="middle" x="495.98" y="-475.86" font-family="Times,serif" font-size="10.00">wasDerivedFrom</text>
</g>
<!-- ann11 -->
<g id="node23" class="node">
<title>ann11</title>
<polygon fill="none" stroke="gray" points="1269.13,-443.36 896.13,-443.36 896.13,-394.36 1275.13,-394.36 1275.13,-437.36 1269.13,-443.36"/>
<polyline fill="none" stroke="gray" points="1269.13,-443.36 1269.13,-437.36 "/>
<polyline fill="none" stroke="gray" points="1275.13,-437.36 1269.13,-437.36 "/>
<g id="a_node23_28"><a xlink:href="yProv4MLlabel" xlink:title="&lt;TABLE&gt;">
<text text-anchor="start" x="906.63" y="-428.86" font-family="Times,serif" font-size="10.00">yProv4ML:label</text>
</a>
</g>
<text text-anchor="start" x="976.63" y="-428.86" font-family="Times,serif" font-size="10.00">rolling_mean.csv</text>
<g id="a_node23_29"><a xlink:href="yProv4MLpath" xlink:title="&lt;TABLE&gt;">
<text text-anchor="start" x="906.63" y="-415.86" font-family="Times,serif" font-size="10.00">yProv4ML:path</text>
</a>
</g>
<text text-anchor="start" x="976.63" y="-415.86" font-family="Times,serif" font-size="10.00">/content/functional_decomposition_0/artifacts_GR0/rolling_mean.csv</text>
<g id="a_node23_30"><a xlink:href="yProv4MLrole" xlink:title="&lt;TABLE&gt;">
<text text-anchor="start" x="906.63" y="-402.86" font-family="Times,serif" font-size="10.00">yProv4ML:role</text>
</a>
</g>
<text text-anchor="start" x="976.63" y="-402.86" font-family="Times,serif" font-size="10.00">input</text>
</g>
<!-- ann11&#45;&gt;n12 -->
<g id="edge11" class="edge">
<title>ann11&#45;&gt;n12</title>
<path fill="none" stroke="gray" stroke-dasharray="5,2" d="M895.84,-440.08C821.66,-448.42 741.44,-457.44 687.14,-463.55"/>
</g>
<!-- n13 -->
<g id="node24" class="node">
<title>n13</title>
<g id="a_node24"><a xlink:href="functional_decomposition_GR0_0Original residual.csv" xlink:title="Original residual.csv">
<ellipse fill="#fffc87" stroke="#808080" cx="103.99" cy="-389.86" rx="84.49" ry="18"/>
<text text-anchor="middle" x="103.99" y="-386.16" font-family="Times,serif" font-size="14.00">Original residual.csv</text>
</a>
</g>
</g>
<!-- n13&#45;&gt;n2 -->
<g id="edge30" class="edge">
<title>n13&#45;&gt;n2</title>
<path fill="none" stroke="darkgreen" d="M177.89,-398.65C193.73,-400.46 210.41,-402.29 225.98,-403.86 433.38,-424.73 485.81,-423.58 693.27,-443.86 779.21,-452.25 875.63,-462.84 951.26,-471.4"/>
<polygon fill="darkgreen" stroke="darkgreen" points="950.99,-474.89 961.32,-472.54 951.78,-467.94 950.99,-474.89"/>
<text text-anchor="middle" x="495.98" y="-431.86" font-family="Times,serif" font-size="10.00" fill="darkgreen">wasGeneratedBy</text>
</g>
<!-- ann12 -->
<g id="node25" class="node">
<title>ann12</title>
<polygon fill="none" stroke="gray" points="425.48,-370.36 256.48,-370.36 256.48,-321.36 431.48,-321.36 431.48,-364.36 425.48,-370.36"/>
<polyline fill="none" stroke="gray" points="425.48,-370.36 425.48,-364.36 "/>
<polyline fill="none" stroke="gray" points="431.48,-364.36 425.48,-364.36 "/>
<g id="a_node25_31"><a xlink:href="yProv4MLlabel" xlink:title="&lt;TABLE&gt;">
<text text-anchor="start" x="266.98" y="-355.86" font-family="Times,serif" font-size="10.00">yProv4ML:label</text>
</a>
</g>
<text text-anchor="start" x="336.98" y="-355.86" font-family="Times,serif" font-size="10.00">Original residual.csv</text>
<g id="a_node25_32"><a xlink:href="yProv4MLpath" xlink:title="&lt;TABLE&gt;">
<text text-anchor="start" x="266.98" y="-342.86" font-family="Times,serif" font-size="10.00">yProv4ML:path</text>
</a>
</g>
<text text-anchor="start" x="336.98" y="-342.86" font-family="Times,serif" font-size="10.00">residual.csv</text>
<g id="a_node25_33"><a xlink:href="yProv4MLrole" xlink:title="&lt;TABLE&gt;">
<text text-anchor="start" x="266.98" y="-329.86" font-family="Times,serif" font-size="10.00">yProv4ML:role</text>
</a>
</g>
<text text-anchor="start" x="336.98" y="-329.86" font-family="Times,serif" font-size="10.00">output</text>
</g>
<!-- ann12&#45;&gt;n13 -->
<g id="edge12" class="edge">
<title>ann12&#45;&gt;n13</title>
<path fill="none" stroke="gray" stroke-dasharray="5,2" d="M256.39,-361.87C227.28,-367.25 195.38,-373.15 168.39,-378.13"/>
</g>
<!-- b4 -->
<g id="node31" class="node">
<title>b4</title>
<ellipse fill="gray" stroke="gray" cx="343.98" cy="-389.86" rx="1.8" ry="1.8"/>
</g>
<!-- n14&#45;&gt;b4 -->
<g id="edge32" class="edge">
<title>n14&#45;&gt;b4</title>
<path fill="none" stroke="black" d="M568.7,-380.91C492.79,-383.95 358.35,-389.32 345.91,-389.82"/>
<text text-anchor="middle" x="495.98" y="-387.86" font-family="Times,serif" font-size="10.00">wasDerivedFrom</text>
</g>
<!-- ann13 -->
<g id="node27" class="node">
<title>ann13</title>
<polygon fill="none" stroke="gray" points="1258.13,-376.36 907.13,-376.36 907.13,-327.36 1264.13,-327.36 1264.13,-370.36 1258.13,-376.36"/>
<polyline fill="none" stroke="gray" points="1258.13,-376.36 1258.13,-370.36 "/>
<polyline fill="none" stroke="gray" points="1264.13,-370.36 1258.13,-370.36 "/>
<g id="a_node27_34"><a xlink:href="yProv4MLlabel" xlink:title="&lt;TABLE&gt;">
<text text-anchor="start" x="917.63" y="-361.86" font-family="Times,serif" font-size="10.00">yProv4ML:label</text>
</a>
</g>
<text text-anchor="start" x="987.63" y="-361.86" font-family="Times,serif" font-size="10.00">residual.csv</text>
<g id="a_node27_35"><a xlink:href="yProv4MLpath" xlink:title="&lt;TABLE&gt;">
<text text-anchor="start" x="917.63" y="-348.86" font-family="Times,serif" font-size="10.00">yProv4ML:path</text>
</a>
</g>
<text text-anchor="start" x="987.63" y="-348.86" font-family="Times,serif" font-size="10.00">/content/functional_decomposition_0/artifacts_GR0/residual.csv</text>
<g id="a_node27_36"><a xlink:href="yProv4MLrole" xlink:title="&lt;TABLE&gt;">
<text text-anchor="start" x="917.63" y="-335.86" font-family="Times,serif" font-size="10.00">yProv4ML:role</text>
</a>
</g>
<text text-anchor="start" x="987.63" y="-335.86" font-family="Times,serif" font-size="10.00">input</text>
</g>
<!-- ann13&#45;&gt;n14 -->
<g id="edge13" class="edge">
<title>ann13&#45;&gt;n14</title>
<path fill="none" stroke="gray" stroke-dasharray="5,2" d="M906.84,-355.6C844.87,-357.81 774.93,-361.31 711.27,-366.86 697.73,-368.04 683.1,-369.8 669.68,-371.62"/>
</g>
<!-- b1&#45;&gt;n1 -->
<g id="edge15" class="edge">
<title>b1&#45;&gt;n1</title>
<path fill="none" stroke="#fed37f" d="M619.13,-689.86C605.58,-689.86 457.35,-689.86 384.68,-689.86"/>
<polygon fill="#fed37f" stroke="#fed37f" points="384.53,-686.36 374.53,-689.86 384.53,-693.36 384.53,-686.36"/>
</g>
<!-- b2&#45;&gt;n9 -->
<g id="edge25" class="edge">
<title>b2&#45;&gt;n9</title>
<path fill="none" stroke="black" d="M341.92,-651.86C332.68,-651.86 264.71,-651.86 203.93,-651.86"/>
<polygon fill="black" stroke="black" points="203.86,-648.36 193.86,-651.86 203.86,-655.36 203.86,-648.36"/>
</g>
<!-- b3&#45;&gt;n11 -->
<g id="edge29" class="edge">
<title>b3&#45;&gt;n11</title>
<path fill="none" stroke="black" d="M341.92,-476.01C332.16,-477.45 256.99,-488.5 193.9,-497.78"/>
<polygon fill="black" stroke="black" points="193.27,-494.34 183.89,-499.25 194.29,-501.26 193.27,-494.34"/>
</g>
<!-- b4&#45;&gt;n13 -->
<g id="edge33" class="edge">
<title>b4&#45;&gt;n13</title>
<path fill="none" stroke="black" d="M341.92,-389.86C332.42,-389.86 260.93,-389.86 198.94,-389.86"/>
<polygon fill="black" stroke="black" points="198.68,-386.36 188.68,-389.86 198.68,-393.36 198.68,-386.36"/>
</g>
</g>
</svg>
