<?xml version="1.0" encoding="UTF-8" standalone="no"?>
<!DOCTYPE svg PUBLIC "-//W3C//DTD SVG 1.1//EN"
 "http://www.w3.org/Graphics/SVG/1.1/DTD/svg11.dtd">
<!-- Generated by graphviz version 2.43.0 (0)
 -->
<!-- Title: G Pages: 1 -->
<svg width="1791pt" height="453pt"
 viewBox="0.00 0.00 1791.27 452.50" xmlns="http://www.w3.org/2000/svg" xmlns:xlink="http://www.w3.org/1999/xlink">
<g id="graph0" class="graph" transform="scale(1 1) rotate(0) translate(4 448.5)">
<title>G</title>
<polygon fill="white" stroke="transparent" points="-4,4 -4,-448.5 1787.27,-448.5 1787.27,4 -4,4"/>
<!-- n1 -->
<g id="node1" class="node">
<title>n1</title>
<g id="a_node1"><a xlink:href="functional_decomposition_GR0_0root" xlink:title="root">
<polygon fill="#fed37f" stroke="black" points="374.54,-309.06 343.98,-321.5 313.43,-309.06 313.45,-288.94 374.51,-288.94 374.54,-309.06"/>
<text text-anchor="middle" x="343.98" y="-299.8" font-family="Times,serif" font-size="14.00">root</text>
</a>
</g>
</g>
<!-- n2 -->
<g id="node2" class="node">
<title>n2</title>
<g id="a_node2"><a xlink:href="contextfunctional_decomposition_GR0_0" xlink:title="context:functional_decomposition_GR0_0">
<polygon fill="#9fb1fc" stroke="#0000ff" points="1124.77,-207.5 876.77,-207.5 876.77,-171.5 1124.77,-171.5 1124.77,-207.5"/>
<text text-anchor="middle" x="1000.77" y="-185.8" font-family="Times,serif" font-size="14.00">context:functional_decomposition_GR0_0</text>
</a>
</g>
</g>
<!-- n9 -->
<g id="node16" class="node">
<title>n9</title>
<g id="a_node16"><a xlink:href="functional_decomposition_GR0_0rolling_mean.csv" xlink:title="rolling_mean.csv">
<ellipse fill="#fffc87" stroke="#808080" cx="621.13" cy="-37.5" rx="72.29" ry="18"/>
<text text-anchor="middle" x="621.13" y="-33.8" font-family="Times,serif" font-size="14.00">rolling_mean.csv</text>
</a>
</g>
</g>
<!-- n2&#45;&gt;n9 -->
<g id="edge19" class="edge">
<title>n2&#45;&gt;n9</title>
<path fill="none" stroke="#8b0000" d="M978.57,-171.44C942.94,-142.21 867.62,-85.11 793.27,-58.5 764.91,-48.35 732.39,-42.93 703.38,-40.1"/>
<polygon fill="#8b0000" stroke="#8b0000" points="703.55,-36.6 693.28,-39.2 702.93,-43.57 703.55,-36.6"/>
<text text-anchor="middle" x="752.27" y="-61.5" font-family="Times,serif" font-size="10.00" fill="red">used</text>
</g>
<!-- n11 -->
<g id="node20" class="node">
<title>n11</title>
<g id="a_node20"><a xlink:href="functional_decomposition_GR0_0residual.csv" xlink:title="residual.csv">
<ellipse fill="#fffc87" stroke="#808080" cx="621.13" cy="-331.5" rx="52.79" ry="18"/>
<text text-anchor="middle" x="621.13" y="-327.8" font-family="Times,serif" font-size="14.00">residual.csv</text>
</a>
</g>
</g>
<!-- n2&#45;&gt;n11 -->
<g id="edge23" class="edge">
<title>n2&#45;&gt;n11</title>
<path fill="none" stroke="#8b0000" d="M951.56,-207.63C877.87,-235.34 738.28,-287.82 666.78,-314.71"/>
<polygon fill="#8b0000" stroke="#8b0000" points="665.29,-311.53 657.16,-318.33 667.75,-318.08 665.29,-311.53"/>
<text text-anchor="middle" x="752.27" y="-299.5" font-family="Times,serif" font-size="10.00" fill="red">used</text>
</g>
<!-- b1 -->
<g id="node22" class="node">
<title>b1</title>
<ellipse fill="gray" stroke="gray" cx="621.13" cy="-261.5" rx="1.8" ry="1.8"/>
</g>
<!-- n2&#45;&gt;b1 -->
<g id="edge11" class="edge">
<title>n2&#45;&gt;b1</title>
<path fill="none" stroke="#fed37f" d="M904.96,-207.58C798.34,-227.9 638.02,-258.47 623.23,-261.29"/>
<text text-anchor="middle" x="752.27" y="-246.5" font-family="Times,serif" font-size="10.00">wasAssociatedWith</text>
</g>
<!-- ann1 -->
<g id="node3" class="node">
<title>ann1</title>
<polygon fill="none" stroke="gray" points="1644.27,-444.5 1291.27,-444.5 1291.27,-304.5 1650.27,-304.5 1650.27,-438.5 1644.27,-444.5"/>
<polyline fill="none" stroke="gray" points="1644.27,-444.5 1644.27,-438.5 "/>
<polyline fill="none" stroke="gray" points="1650.27,-438.5 1644.27,-438.5 "/>
<g id="a_node3_0"><a xlink:href="functional_decomposition_GR0_0execution_end_time" xlink:title="&lt;TABLE&gt;">
<text text-anchor="start" x="1301.77" y="-430.5" font-family="Times,serif" font-size="10.00">execution_end_time</text>
</a>
</g>
<text text-anchor="start" x="1424.77" y="-430.5" font-family="Times,serif" font-size="10.00">{&#39;value:&#39;: 1764713662.0497227, &#39;dtype&#39;: &#39;float&#39;}</text>
<g id="a_node3_1"><a xlink:href="functional_decomposition_GR0_0execution_start_time" xlink:title="&lt;TABLE&gt;">
<text text-anchor="start" x="1301.77" y="-417.5" font-family="Times,serif" font-size="10.00">execution_start_time</text>
</a>
</g>
<text text-anchor="start" x="1424.77" y="-417.5" font-family="Times,serif" font-size="10.00">{&#39;value:&#39;: 1764713658.6609492, &#39;dtype&#39;: &#39;float&#39;}</text>
<g id="a_node3_2"><a xlink:href="yProv4MLartifact_uri" xlink:title="&lt;TABLE&gt;">
<text text-anchor="start" x="1301.77" y="-404.5" font-family="Times,serif" font-size="10.00">yProv4ML:artifact_uri</text>
</a>
</g>
<text text-anchor="start" x="1424.77" y="-404.5" font-family="Times,serif" font-size="10.00">/content/functional_decomposition_0/artifacts_GR0</text>
<g id="a_node3_3"><a xlink:href="yProv4MLexperiment_dir" xlink:title="&lt;TABLE&gt;">
<text text-anchor="start" x="1301.77" y="-391.5" font-family="Times,serif" font-size="10.00">yProv4ML:experiment_dir</text>
</a>
</g>
<text text-anchor="start" x="1424.77" y="-391.5" font-family="Times,serif" font-size="10.00">/content/functional_decomposition_0</text>
<g id="a_node3_4"><a xlink:href="yProv4MLexperiment_name" xlink:title="&lt;TABLE&gt;">
<text text-anchor="start" x="1301.77" y="-378.5" font-family="Times,serif" font-size="10.00">yProv4ML:experiment_name</text>
</a>
</g>
<text text-anchor="start" x="1424.77" y="-378.5" font-family="Times,serif" font-size="10.00">functional_decomposition_GR0_0</text>
<g id="a_node3_5"><a xlink:href="yProv4MLglobal_rank" xlink:title="&lt;TABLE&gt;">
<text text-anchor="start" x="1301.77" y="-365.5" font-family="Times,serif" font-size="10.00">yProv4ML:global_rank</text>
</a>
</g>
<text text-anchor="start" x="1424.77" y="-365.5" font-family="Times,serif" font-size="10.00">0</text>
<g id="a_node3_6"><a xlink:href="yProv4MLlevel" xlink:title="&lt;TABLE&gt;">
<text text-anchor="start" x="1301.77" y="-352.5" font-family="Times,serif" font-size="10.00">yProv4ML:level</text>
</a>
</g>
<text text-anchor="start" x="1424.77" y="-352.5" font-family="Times,serif" font-size="10.00">0</text>
<g id="a_node3_7"><a xlink:href="yProv4MLprovenance_path" xlink:title="&lt;TABLE&gt;">
<text text-anchor="start" x="1301.77" y="-339.5" font-family="Times,serif" font-size="10.00">yProv4ML:provenance_path</text>
</a>
</g>
<text text-anchor="start" x="1424.77" y="-339.5" font-family="Times,serif" font-size="10.00">/content/</text>
<g id="a_node3_8"><a xlink:href="yProv4MLpython_version" xlink:title="&lt;TABLE&gt;">
<text text-anchor="start" x="1301.77" y="-326.5" font-family="Times,serif" font-size="10.00">yProv4ML:python_version</text>
</a>
</g>
<text text-anchor="start" x="1424.77" y="-326.5" font-family="Times,serif" font-size="10.00">3.12.12 (main, Oct 10 2025, 08:52:57) [GCC 11.4.0]</text>
<g id="a_node3_9"><a xlink:href="yProv4MLrun_id" xlink:title="&lt;TABLE&gt;">
<text text-anchor="start" x="1301.77" y="-313.5" font-family="Times,serif" font-size="10.00">yProv4ML:run_id</text>
</a>
</g>
<text text-anchor="start" x="1424.77" y="-313.5" font-family="Times,serif" font-size="10.00">0</text>
</g>
<!-- ann1&#45;&gt;n2 -->
<g id="edge1" class="edge">
<title>ann1&#45;&gt;n2</title>
<path fill="none" stroke="gray" stroke-dasharray="5,2" d="M1292.5,-304.43C1204.02,-269.45 1104.03,-229.92 1047.38,-207.53"/>
</g>
<!-- n3 -->
<g id="node4" class="node">
<title>n3</title>
<g id="a_node4"><a xlink:href="contextContext.TRAINING" xlink:title="context:Context.TRAINING">
<polygon fill="#9fb1fc" stroke="#0000ff" points="1556.77,-286.5 1384.77,-286.5 1384.77,-250.5 1556.77,-250.5 1556.77,-286.5"/>
<text text-anchor="middle" x="1470.77" y="-264.8" font-family="Times,serif" font-size="14.00">context:Context.TRAINING</text>
</a>
</g>
</g>
<!-- n3&#45;&gt;n2 -->
<g id="edge13" class="edge">
<title>n3&#45;&gt;n2</title>
<path fill="none" stroke="black" d="M1384.35,-256.07C1354.83,-251.64 1321.57,-246.51 1291.27,-241.5 1230.56,-231.46 1162.86,-219.35 1108.2,-209.34"/>
<polygon fill="black" stroke="black" points="1108.62,-205.86 1098.15,-207.5 1107.36,-212.75 1108.62,-205.86"/>
<text text-anchor="middle" x="1240.77" y="-240.5" font-family="Times,serif" font-size="10.00">wasInformedBy</text>
</g>
<!-- ann2 -->
<g id="node5" class="node">
<title>ann2</title>
<polygon fill="none" stroke="gray" points="1777.27,-286.5 1687.27,-286.5 1687.27,-250.5 1783.27,-250.5 1783.27,-280.5 1777.27,-286.5"/>
<polyline fill="none" stroke="gray" points="1777.27,-286.5 1777.27,-280.5 "/>
<polyline fill="none" stroke="gray" points="1783.27,-280.5 1777.27,-280.5 "/>
<g id="a_node5_10"><a xlink:href="yProv4MLlevel" xlink:title="&lt;TABLE&gt;">
<text text-anchor="start" x="1697.27" y="-265.5" font-family="Times,serif" font-size="10.00">yProv4ML:level</text>
</a>
</g>
<text text-anchor="start" x="1767.27" y="-265.5" font-family="Times,serif" font-size="10.00">1</text>
</g>
<!-- ann2&#45;&gt;n3 -->
<g id="edge2" class="edge">
<title>ann2&#45;&gt;n3</title>
<path fill="none" stroke="gray" stroke-dasharray="5,2" d="M1687.04,-268.5C1650.87,-268.5 1600.03,-268.5 1556.83,-268.5"/>
</g>
<!-- n4 -->
<g id="node6" class="node">
<title>n4</title>
<g id="a_node6"><a xlink:href="contextContext.VALIDATION" xlink:title="context:Context.VALIDATION">
<polygon fill="#9fb1fc" stroke="#0000ff" points="1564.77,-232.5 1376.77,-232.5 1376.77,-196.5 1564.77,-196.5 1564.77,-232.5"/>
<text text-anchor="middle" x="1470.77" y="-210.8" font-family="Times,serif" font-size="14.00">context:Context.VALIDATION</text>
</a>
</g>
</g>
<!-- n4&#45;&gt;n2 -->
<g id="edge14" class="edge">
<title>n4&#45;&gt;n2</title>
<path fill="none" stroke="black" d="M1376.75,-209.53C1307.61,-205.84 1212.3,-200.75 1135.07,-196.62"/>
<polygon fill="black" stroke="black" points="1134.95,-193.11 1124.78,-196.07 1134.58,-200.1 1134.95,-193.11"/>
<text text-anchor="middle" x="1240.77" y="-205.5" font-family="Times,serif" font-size="10.00">wasInformedBy</text>
</g>
<!-- ann3 -->
<g id="node7" class="node">
<title>ann3</title>
<polygon fill="none" stroke="gray" points="1777.27,-232.5 1687.27,-232.5 1687.27,-196.5 1783.27,-196.5 1783.27,-226.5 1777.27,-232.5"/>
<polyline fill="none" stroke="gray" points="1777.27,-232.5 1777.27,-226.5 "/>
<polyline fill="none" stroke="gray" points="1783.27,-226.5 1777.27,-226.5 "/>
<g id="a_node7_11"><a xlink:href="yProv4MLlevel" xlink:title="&lt;TABLE&gt;">
<text text-anchor="start" x="1697.27" y="-211.5" font-family="Times,serif" font-size="10.00">yProv4ML:level</text>
</a>
</g>
<text text-anchor="start" x="1767.27" y="-211.5" font-family="Times,serif" font-size="10.00">1</text>
</g>
<!-- ann3&#45;&gt;n4 -->
<g id="edge3" class="edge">
<title>ann3&#45;&gt;n4</title>
<path fill="none" stroke="gray" stroke-dasharray="5,2" d="M1687.04,-214.5C1653.09,-214.5 1606.2,-214.5 1564.85,-214.5"/>
</g>
<!-- n5 -->
<g id="node8" class="node">
<title>n5</title>
<g id="a_node8"><a xlink:href="contextContext.TESTING" xlink:title="context:Context.TESTING">
<polygon fill="#9fb1fc" stroke="#0000ff" points="1552.27,-178.5 1389.27,-178.5 1389.27,-142.5 1552.27,-142.5 1552.27,-178.5"/>
<text text-anchor="middle" x="1470.77" y="-156.8" font-family="Times,serif" font-size="14.00">context:Context.TESTING</text>
</a>
</g>
</g>
<!-- n5&#45;&gt;n2 -->
<g id="edge15" class="edge">
<title>n5&#45;&gt;n2</title>
<path fill="none" stroke="black" d="M1389.05,-165.5C1319.27,-169.83 1217.02,-176.16 1135.1,-181.24"/>
<polygon fill="black" stroke="black" points="1134.72,-177.75 1124.96,-181.87 1135.16,-184.74 1134.72,-177.75"/>
<text text-anchor="middle" x="1240.77" y="-178.5" font-family="Times,serif" font-size="10.00">wasInformedBy</text>
</g>
<!-- ann4 -->
<g id="node9" class="node">
<title>ann4</title>
<polygon fill="none" stroke="gray" points="1777.27,-178.5 1687.27,-178.5 1687.27,-142.5 1783.27,-142.5 1783.27,-172.5 1777.27,-178.5"/>
<polyline fill="none" stroke="gray" points="1777.27,-178.5 1777.27,-172.5 "/>
<polyline fill="none" stroke="gray" points="1783.27,-172.5 1777.27,-172.5 "/>
<g id="a_node9_12"><a xlink:href="yProv4MLlevel" xlink:title="&lt;TABLE&gt;">
<text text-anchor="start" x="1697.27" y="-157.5" font-family="Times,serif" font-size="10.00">yProv4ML:level</text>
</a>
</g>
<text text-anchor="start" x="1767.27" y="-157.5" font-family="Times,serif" font-size="10.00">1</text>
</g>
<!-- ann4&#45;&gt;n5 -->
<g id="edge4" class="edge">
<title>ann4&#45;&gt;n5</title>
<path fill="none" stroke="gray" stroke-dasharray="5,2" d="M1687.04,-160.5C1649.62,-160.5 1596.48,-160.5 1552.36,-160.5"/>
</g>
<!-- n6 -->
<g id="node10" class="node">
<title>n6</title>
<g id="a_node10"><a xlink:href="contextContext.DATASETS" xlink:title="context:Context.DATASETS">
<polygon fill="#9fb1fc" stroke="#0000ff" points="1557.27,-124.5 1384.27,-124.5 1384.27,-88.5 1557.27,-88.5 1557.27,-124.5"/>
<text text-anchor="middle" x="1470.77" y="-102.8" font-family="Times,serif" font-size="14.00">context:Context.DATASETS</text>
</a>
</g>
</g>
<!-- n6&#45;&gt;n2 -->
<g id="edge16" class="edge">
<title>n6&#45;&gt;n2</title>
<path fill="none" stroke="black" d="M1383.85,-118.77C1354.45,-123.16 1321.38,-128.31 1291.27,-133.5 1227.38,-144.51 1155.85,-158.33 1099.88,-169.49"/>
<polygon fill="black" stroke="black" points="1099.09,-166.07 1089.97,-171.47 1100.46,-172.94 1099.09,-166.07"/>
<text text-anchor="middle" x="1240.77" y="-150.5" font-family="Times,serif" font-size="10.00">wasInformedBy</text>
</g>
<!-- ann5 -->
<g id="node11" class="node">
<title>ann5</title>
<polygon fill="none" stroke="gray" points="1777.27,-124.5 1687.27,-124.5 1687.27,-88.5 1783.27,-88.5 1783.27,-118.5 1777.27,-124.5"/>
<polyline fill="none" stroke="gray" points="1777.27,-124.5 1777.27,-118.5 "/>
<polyline fill="none" stroke="gray" points="1783.27,-118.5 1777.27,-118.5 "/>
<g id="a_node11_13"><a xlink:href="yProv4MLlevel" xlink:title="&lt;TABLE&gt;">
<text text-anchor="start" x="1697.27" y="-103.5" font-family="Times,serif" font-size="10.00">yProv4ML:level</text>
</a>
</g>
<text text-anchor="start" x="1767.27" y="-103.5" font-family="Times,serif" font-size="10.00">1</text>
</g>
<!-- ann5&#45;&gt;n6 -->
<g id="edge5" class="edge">
<title>ann5&#45;&gt;n6</title>
<path fill="none" stroke="gray" stroke-dasharray="5,2" d="M1687.04,-106.5C1651.02,-106.5 1600.44,-106.5 1557.36,-106.5"/>
</g>
<!-- n7 -->
<g id="node12" class="node">
<title>n7</title>
<g id="a_node12"><a xlink:href="contextContext.MODELS" xlink:title="context:Context.MODELS">
<polygon fill="#9fb1fc" stroke="#0000ff" points="1552.27,-70.5 1389.27,-70.5 1389.27,-34.5 1552.27,-34.5 1552.27,-70.5"/>
<text text-anchor="middle" x="1470.77" y="-48.8" font-family="Times,serif" font-size="14.00">context:Context.MODELS</text>
</a>
</g>
</g>
<!-- n7&#45;&gt;n2 -->
<g id="edge17" class="edge">
<title>n7&#45;&gt;n2</title>
<path fill="none" stroke="black" d="M1389.06,-61C1358.17,-65.22 1322.8,-71.23 1291.27,-79.5 1204.25,-102.33 1107.31,-142.31 1050.59,-167.27"/>
<polygon fill="black" stroke="black" points="1048.89,-164.19 1041.16,-171.44 1051.72,-170.59 1048.89,-164.19"/>
<text text-anchor="middle" x="1240.77" y="-106.5" font-family="Times,serif" font-size="10.00">wasInformedBy</text>
</g>
<!-- ann6 -->
<g id="node13" class="node">
<title>ann6</title>
<polygon fill="none" stroke="gray" points="1777.27,-70.5 1687.27,-70.5 1687.27,-34.5 1783.27,-34.5 1783.27,-64.5 1777.27,-70.5"/>
<polyline fill="none" stroke="gray" points="1777.27,-70.5 1777.27,-64.5 "/>
<polyline fill="none" stroke="gray" points="1783.27,-64.5 1777.27,-64.5 "/>
<g id="a_node13_14"><a xlink:href="yProv4MLlevel" xlink:title="&lt;TABLE&gt;">
<text text-anchor="start" x="1697.27" y="-49.5" font-family="Times,serif" font-size="10.00">yProv4ML:level</text>
</a>
</g>
<text text-anchor="start" x="1767.27" y="-49.5" font-family="Times,serif" font-size="10.00">1</text>
</g>
<!-- ann6&#45;&gt;n7 -->
<g id="edge6" class="edge">
<title>ann6&#45;&gt;n7</title>
<path fill="none" stroke="gray" stroke-dasharray="5,2" d="M1687.04,-52.5C1649.62,-52.5 1596.48,-52.5 1552.36,-52.5"/>
</g>
<!-- n8 -->
<g id="node14" class="node">
<title>n8</title>
<g id="a_node14"><a xlink:href="functional_decomposition_GR0_0Original rolling_mean.csv" xlink:title="Original rolling_mean.csv">
<ellipse fill="#fffc87" stroke="#808080" cx="103.99" cy="-83.5" rx="103.98" ry="18"/>
<text text-anchor="middle" x="103.99" y="-79.8" font-family="Times,serif" font-size="14.00">Original rolling_mean.csv</text>
</a>
</g>
</g>
<!-- n8&#45;&gt;n2 -->
<g id="edge18" class="edge">
<title>n8&#45;&gt;n2</title>
<path fill="none" stroke="darkgreen" d="M206.13,-87C273.4,-89.93 363.63,-95.04 442.98,-103.5 599.7,-120.2 779.73,-149.95 891.63,-169.71"/>
<polygon fill="darkgreen" stroke="darkgreen" points="891.11,-173.17 901.57,-171.47 892.33,-166.28 891.11,-173.17"/>
<text text-anchor="middle" x="495.98" y="-116.5" font-family="Times,serif" font-size="10.00" fill="darkgreen">wasGeneratedBy</text>
</g>
<!-- ann7 -->
<g id="node15" class="node">
<title>ann7</title>
<polygon fill="none" stroke="gray" points="436.98,-161 244.98,-161 244.98,-112 442.98,-112 442.98,-155 436.98,-161"/>
<polyline fill="none" stroke="gray" points="436.98,-161 436.98,-155 "/>
<polyline fill="none" stroke="gray" points="442.98,-155 436.98,-155 "/>
<g id="a_node15_15"><a xlink:href="yProv4MLlabel" xlink:title="&lt;TABLE&gt;">
<text text-anchor="start" x="254.98" y="-146.5" font-family="Times,serif" font-size="10.00">yProv4ML:label</text>
</a>
</g>
<text text-anchor="start" x="324.98" y="-146.5" font-family="Times,serif" font-size="10.00">Original rolling_mean.csv</text>
<g id="a_node15_16"><a xlink:href="yProv4MLpath" xlink:title="&lt;TABLE&gt;">
<text text-anchor="start" x="254.98" y="-133.5" font-family="Times,serif" font-size="10.00">yProv4ML:path</text>
</a>
</g>
<text text-anchor="start" x="324.98" y="-133.5" font-family="Times,serif" font-size="10.00">rolling_mean.csv</text>
<g id="a_node15_17"><a xlink:href="yProv4MLrole" xlink:title="&lt;TABLE&gt;">
<text text-anchor="start" x="254.98" y="-120.5" font-family="Times,serif" font-size="10.00">yProv4ML:role</text>
</a>
</g>
<text text-anchor="start" x="324.98" y="-120.5" font-family="Times,serif" font-size="10.00">output</text>
</g>
<!-- ann7&#45;&gt;n8 -->
<g id="edge7" class="edge">
<title>ann7&#45;&gt;n8</title>
<path fill="none" stroke="gray" stroke-dasharray="5,2" d="M244.81,-114.64C219.07,-108.91 191.99,-102.88 168.59,-97.66"/>
</g>
<!-- b2 -->
<g id="node23" class="node">
<title>b2</title>
<ellipse fill="gray" stroke="gray" cx="343.98" cy="-48.5" rx="1.8" ry="1.8"/>
</g>
<!-- n9&#45;&gt;b2 -->
<g id="edge20" class="edge">
<title>n9&#45;&gt;b2</title>
<path fill="none" stroke="black" d="M549.63,-40.32C473.2,-43.37 360.21,-47.89 346.38,-48.44"/>
<text text-anchor="middle" x="495.98" y="-47.5" font-family="Times,serif" font-size="10.00">wasDerivedFrom</text>
</g>
<!-- ann8 -->
<g id="node17" class="node">
<title>ann8</title>
<polygon fill="none" stroke="gray" points="1184.27,-49 811.27,-49 811.27,0 1190.27,0 1190.27,-43 1184.27,-49"/>
<polyline fill="none" stroke="gray" points="1184.27,-49 1184.27,-43 "/>
<polyline fill="none" stroke="gray" points="1190.27,-43 1184.27,-43 "/>
<g id="a_node17_18"><a xlink:href="yProv4MLlabel" xlink:title="&lt;TABLE&gt;">
<text text-anchor="start" x="821.77" y="-34.5" font-family="Times,serif" font-size="10.00">yProv4ML:label</text>
</a>
</g>
<text text-anchor="start" x="891.77" y="-34.5" font-family="Times,serif" font-size="10.00">rolling_mean.csv</text>
<g id="a_node17_19"><a xlink:href="yProv4MLpath" xlink:title="&lt;TABLE&gt;">
<text text-anchor="start" x="821.77" y="-21.5" font-family="Times,serif" font-size="10.00">yProv4ML:path</text>
</a>
</g>
<text text-anchor="start" x="891.77" y="-21.5" font-family="Times,serif" font-size="10.00">/content/functional_decomposition_0/artifacts_GR0/rolling_mean.csv</text>
<g id="a_node17_20"><a xlink:href="yProv4MLrole" xlink:title="&lt;TABLE&gt;">
<text text-anchor="start" x="821.77" y="-8.5" font-family="Times,serif" font-size="10.00">yProv4ML:role</text>
</a>
</g>
<text text-anchor="start" x="891.77" y="-8.5" font-family="Times,serif" font-size="10.00">input</text>
</g>
<!-- ann8&#45;&gt;n9 -->
<g id="edge8" class="edge">
<title>ann8&#45;&gt;n9</title>
<path fill="none" stroke="gray" stroke-dasharray="5,2" d="M811.22,-30.99C768.96,-32.45 726.67,-33.9 692.84,-35.07"/>
</g>
<!-- n10 -->
<g id="node18" class="node">
<title>n10</title>
<g id="a_node18"><a xlink:href="functional_decomposition_GR0_0Original residual.csv" xlink:title="Original residual.csv">
<ellipse fill="#fffc87" stroke="#808080" cx="103.99" cy="-242.5" rx="84.49" ry="18"/>
<text text-anchor="middle" x="103.99" y="-238.8" font-family="Times,serif" font-size="14.00">Original residual.csv</text>
</a>
</g>
</g>
<!-- n10&#45;&gt;n2 -->
<g id="edge22" class="edge">
<title>n10&#45;&gt;n2</title>
<path fill="none" stroke="darkgreen" d="M155.07,-228.06C181.56,-221.1 214.77,-213.42 244.98,-209.5 461.17,-181.46 715.01,-181.41 866.34,-184.82"/>
<polygon fill="darkgreen" stroke="darkgreen" points="866.53,-188.32 876.61,-185.06 866.69,-181.32 866.53,-188.32"/>
<text text-anchor="middle" x="495.98" y="-192.5" font-family="Times,serif" font-size="10.00" fill="darkgreen">wasGeneratedBy</text>
</g>
<!-- ann9 -->
<g id="node19" class="node">
<title>ann9</title>
<polygon fill="none" stroke="gray" points="425.48,-267 256.48,-267 256.48,-218 431.48,-218 431.48,-261 425.48,-267"/>
<polyline fill="none" stroke="gray" points="425.48,-267 425.48,-261 "/>
<polyline fill="none" stroke="gray" points="431.48,-261 425.48,-261 "/>
<g id="a_node19_21"><a xlink:href="yProv4MLlabel" xlink:title="&lt;TABLE&gt;">
<text text-anchor="start" x="266.98" y="-252.5" font-family="Times,serif" font-size="10.00">yProv4ML:label</text>
</a>
</g>
<text text-anchor="start" x="336.98" y="-252.5" font-family="Times,serif" font-size="10.00">Original residual.csv</text>
<g id="a_node19_22"><a xlink:href="yProv4MLpath" xlink:title="&lt;TABLE&gt;">
<text text-anchor="start" x="266.98" y="-239.5" font-family="Times,serif" font-size="10.00">yProv4ML:path</text>
</a>
</g>
<text text-anchor="start" x="336.98" y="-239.5" font-family="Times,serif" font-size="10.00">residual.csv</text>
<g id="a_node19_23"><a xlink:href="yProv4MLrole" xlink:title="&lt;TABLE&gt;">
<text text-anchor="start" x="266.98" y="-226.5" font-family="Times,serif" font-size="10.00">yProv4ML:role</text>
</a>
</g>
<text text-anchor="start" x="336.98" y="-226.5" font-family="Times,serif" font-size="10.00">output</text>
</g>
<!-- ann9&#45;&gt;n10 -->
<g id="edge9" class="edge">
<title>ann9&#45;&gt;n10</title>
<path fill="none" stroke="gray" stroke-dasharray="5,2" d="M256.39,-242.5C234.33,-242.5 210.66,-242.5 188.74,-242.5"/>
</g>
<!-- b3 -->
<g id="node24" class="node">
<title>b3</title>
<ellipse fill="gray" stroke="gray" cx="343.98" cy="-341.5" rx="1.8" ry="1.8"/>
</g>
<!-- n11&#45;&gt;b3 -->
<g id="edge24" class="edge">
<title>n11&#45;&gt;b3</title>
<path fill="none" stroke="black" d="M568.7,-333.37C492.79,-336.13 358.35,-341.01 345.91,-341.47"/>
<text text-anchor="middle" x="495.98" y="-339.5" font-family="Times,serif" font-size="10.00">wasDerivedFrom</text>
</g>
<!-- ann10 -->
<g id="node21" class="node">
<title>ann10</title>
<polygon fill="none" stroke="gray" points="1173.27,-356 822.27,-356 822.27,-307 1179.27,-307 1179.27,-350 1173.27,-356"/>
<polyline fill="none" stroke="gray" points="1173.27,-356 1173.27,-350 "/>
<polyline fill="none" stroke="gray" points="1179.27,-350 1173.27,-350 "/>
<g id="a_node21_24"><a xlink:href="yProv4MLlabel" xlink:title="&lt;TABLE&gt;">
<text text-anchor="start" x="832.77" y="-341.5" font-family="Times,serif" font-size="10.00">yProv4ML:label</text>
</a>
</g>
<text text-anchor="start" x="902.77" y="-341.5" font-family="Times,serif" font-size="10.00">residual.csv</text>
<g id="a_node21_25"><a xlink:href="yProv4MLpath" xlink:title="&lt;TABLE&gt;">
<text text-anchor="start" x="832.77" y="-328.5" font-family="Times,serif" font-size="10.00">yProv4ML:path</text>
</a>
</g>
<text text-anchor="start" x="902.77" y="-328.5" font-family="Times,serif" font-size="10.00">/content/functional_decomposition_0/artifacts_GR0/residual.csv</text>
<g id="a_node21_26"><a xlink:href="yProv4MLrole" xlink:title="&lt;TABLE&gt;">
<text text-anchor="start" x="832.77" y="-315.5" font-family="Times,serif" font-size="10.00">yProv4ML:role</text>
</a>
</g>
<text text-anchor="start" x="902.77" y="-315.5" font-family="Times,serif" font-size="10.00">input</text>
</g>
<!-- ann10&#45;&gt;n11 -->
<g id="edge10" class="edge">
<title>ann10&#45;&gt;n11</title>
<path fill="none" stroke="gray" stroke-dasharray="5,2" d="M822.01,-331.5C767.87,-331.5 712.51,-331.5 673.82,-331.5"/>
</g>
<!-- b1&#45;&gt;n1 -->
<g id="edge12" class="edge">
<title>b1&#45;&gt;n1</title>
<path fill="none" stroke="#fed37f" d="M619.13,-261.65C605.58,-263.72 457.35,-286.35 384.68,-297.44"/>
<polygon fill="#fed37f" stroke="#fed37f" points="383.89,-294.02 374.53,-298.99 384.95,-300.94 383.89,-294.02"/>
</g>
<!-- b2&#45;&gt;n8 -->
<g id="edge21" class="edge">
<title>b2&#45;&gt;n8</title>
<path fill="none" stroke="black" d="M341.92,-48.66C332.16,-50.09 256.99,-61.15 193.9,-70.42"/>
<polygon fill="black" stroke="black" points="193.27,-66.98 183.89,-71.9 194.29,-73.9 193.27,-66.98"/>
</g>
<!-- b3&#45;&gt;n10 -->
<g id="edge25" class="edge">
<title>b3&#45;&gt;n10</title>
<path fill="none" stroke="black" d="M341.98,-341.55C334.23,-341.93 283.12,-343.84 244.98,-330.5 203.41,-315.96 161.4,-287.25 134.4,-266.57"/>
<polygon fill="black" stroke="black" points="136.22,-263.55 126.18,-260.17 131.91,-269.07 136.22,-263.55"/>
</g>
</g>
</svg>
